<?xml version="1.0"?><svg fill="#000000" xmlns="http://www.w3.org/2000/svg"  viewBox="0 0 30 30" width="240px" height="240px">    <path d="M 4 5 C 3.448 5 3 5.448 3 6 L 3 10 C 3 16.5 8 21 8 21 L 14 21 L 20 21 C 20 21 21.686954 19.47278 23.101562 16.923828 C 23.82703 16.460377 25.942207 15.106617 27.017578 14.455078 C 27.718456 14.030435 28.417683 13.523204 28.982422 12.888672 C 29.547161 12.25414 30 11.4466 30 10.5 C 30 8.5788117 28.421188 7 26.5 7 C 25.96199 7 25.457156 7.1349937 25 7.3554688 L 25 6 C 25 5.448 24.552 5 24 5 L 14 5 L 4 5 z M 26.5 9 C 27.340812 9 28 9.6591883 28 10.5 C 28 10.8034 27.850042 11.152125 27.488281 11.558594 C 27.126521 11.965062 26.575544 12.384784 25.982422 12.744141 C 25.541968 13.011 25.132571 13.280577 24.453125 13.708984 C 24.719291 12.796079 24.898918 11.815765 24.962891 10.779297 A 1.0001 1.0001 0 0 0 25 10.5 C 25 9.6591883 25.659188 9 26.5 9 z M 4 23 A 1.0001 1.0001 0 1 0 4 25 L 24 25 A 1.0001 1.0001 0 1 0 24 23 L 4 23 z"/></svg>