<?xml version="1.0"?><svg fill="#000000" xmlns="http://www.w3.org/2000/svg"  viewBox="0 0 30 30" width="240px" height="240px">    <path d="M 19 2 A 1.0001 1.0001 0 0 0 18.464844 3.8535156 C 18.167533 7.7508882 16 12.023572 16 16 C 16 19.819 16.707937 21.871594 16.585938 23.308594 C 16.463938 24.744594 16 25.981813 16 26.632812 C 16 27.572813 16.496609 28 17.349609 28 L 24.650391 28 C 25.503391 28 26 27.572812 26 26.632812 C 26 25.981813 25.536062 24.745594 25.414062 23.308594 C 25.292062 21.871594 26 19.819 26 16 C 26 12.023572 23.832467 7.7508882 23.535156 3.8535156 A 1.0001 1.0001 0 0 0 23 2 L 19 2 z M 11 5 C 7.141 5 4 8.14 4 12 L 4.0039062 13.070312 L 4.8691406 25.214844 C 4.9811406 26.776844 6.2963281 28 7.8613281 28 L 14.136719 28 C 14.170719 28 14.202328 27.992234 14.236328 27.990234 C 14.083328 27.585234 14 27.128813 14 26.632812 C 14 26.425812 14.0305 26.214 14.0625 26 L 12.523438 26 C 13.402437 24.931 14.160156 23.336 14.160156 21 C 14.160156 19.07 13.729313 17.609562 13.070312 16.476562 C 13.340312 16.344562 13.665859 16.248156 14.005859 16.160156 C 14.004859 16.104156 14 16.057 14 16 C 14 14.678 14.204141 13.364406 14.494141 12.066406 C 14.288141 12.024406 14.066266 12 13.822266 12 C 13.822266 12 13.360469 10 11.105469 10 C 9.2934688 10 8.3867187 11.496094 8.3867188 11.496094 C 8.3867188 11.496094 7.861 11 6.875 11 C 6.581 11 6.3200781 11.084031 6.0800781 11.207031 C 6.4630781 8.8270312 8.514 7 11 7 C 12.769 7 14.316078 7.9293125 15.205078 9.3203125 C 15.250078 9.1603125 15.296797 8.9988438 15.341797 8.8398438 C 15.522797 8.2028437 15.695469 7.5817031 15.855469 6.9707031 C 14.596469 5.7537031 12.885 5 11 5 z M 20.351562 5 L 21.648438 5 C 21.78895 6.0047828 22.023405 7.0054161 22.283203 8 L 19.716797 8 C 19.976595 7.0054161 20.21105 6.0047828 20.351562 5 z M 18.382812 13 L 23.617188 13 C 23.847097 14.038449 24 15.040616 24 16 C 24 18.009 23.790094 19.498313 23.621094 20.695312 C 23.605416 20.8065 23.598806 20.893391 23.583984 21 L 18.417969 21 C 18.403112 20.893258 18.396557 20.806645 18.380859 20.695312 C 18.210859 19.499313 18 18.009 18 16 C 18 15.040616 18.152903 14.038449 18.382812 13 z M 6.1054688 14.476562 L 10.300781 16.199219 C 11.385781 17.151219 12.160156 18.580047 12.160156 20.998047 C 12.159156 24.553047 9.9105156 25.757 9.3535156 26 L 7.8613281 26 C 7.3393281 26 6.9012812 25.591313 6.8632812 25.070312 L 6.1054688 14.476562 z M 9.1582031 20 A 1 1 0 0 0 8.1582031 21 A 1 1 0 0 0 9.1582031 22 A 1 1 0 0 0 10.158203 21 A 1 1 0 0 0 9.1582031 20 z M 8.6582031 23 A 0.5 0.5 0 0 0 8.1582031 23.5 A 0.5 0.5 0 0 0 8.6582031 24 A 0.5 0.5 0 0 0 9.1582031 23.5 A 0.5 0.5 0 0 0 8.6582031 23 z"/></svg>