<svg fill="#000000" xmlns="http://www.w3.org/2000/svg"  viewBox="0 0 30 30" width="240px" height="240px"><path d="M 6.5 1 C 3.4666667 1 1 3.4666667 1 6.5 C 1 9.5333333 3.4666667 12 6.5 12 C 7.4534348 12 8.3592495 11.723374 9.1542969 11.283203 L 14 16.398438 L 14 24.195312 L 9.8242188 25.013672 A 1.0001 1.0001 0 0 0 9.7675781 25.025391 L 9.7382812 25.03125 L 9.7382812 25.033203 A 1.0001 1.0001 0 0 0 10 27 L 14.832031 27 A 1.0001 1.0001 0 0 0 15.158203 27 L 20 27 A 1.0001 1.0001 0 0 0 20.261719 25.03125 L 20.234375 25.025391 A 1.0001 1.0001 0 0 0 20.154297 25.009766 L 16 24.195312 L 16 16.398438 L 24.726562 7.1875 C 24.902563 7.0015 25 6.756 25 6.5 L 25 6 C 25 5.447 24.552 5 24 5 L 11.755859 5 C 11.150465 2.675995 8.9869437 1 6.5 1 z M 6.5 3 C 7.8951494 3 9.1154085 3.8365654 9.6484375 5 L 6 5 C 5.448 5 5 5.447 5 6 L 5 6.5 C 5 6.756 5.0974375 7.0015 5.2734375 7.1875 L 7.7011719 9.75 C 7.3018231 9.9063131 6.890102 10 6.5 10 C 4.5333333 10 3 8.4666667 3 6.5 C 3 4.5333333 4.5333333 3 6.5 3 z M 7.8515625 7 L 22.148438 7 L 20.253906 9 L 11.880859 9 L 15.5625 12.886719 C 15.8455 13.185719 15.8455 13.652172 15.5625 13.951172 C 15.2565 14.274172 14.7435 14.274172 14.4375 13.951172 L 7.8515625 7 z"/></svg>